#!OML:ASF X:\für Bonn\!DataBase\2005_08_10_Bjorn_Final\c3d\bjorn.ASF
:FULLY-SPECIFIED
:DEGREES
16
root 20.4239 19.1257 0.323472 90.8209 -93.6213 -98.08
lowerback 7.05773 1.36491 -7.77474
upperback 14.2243 1.06667 -3.05512
thorax 11.34 -0.509822 0.935969
lowerneck -1.78327 0.889674 2.12557
upperneck 25.1138 0.768175 -2.98765
head 8.05289 -0.0371483 -1.35112
rclavicle 1.43125e-014 3.89618e-014
rhumerus -27.7652 -19.0121 -84.3405
rradius 24.5616
rwrist -1.79379
rhand -9.94147 9.12873
rfingers 7.12502
rthumb 16.04 -20.2273
lclavicle 1.43125e-014 3.89618e-014
lhumerus -13.7225 -7.66515 81.0836
lradius 31.3616
lwrist -23.0312
lhand -15.7616 -5.69585
lfingers 7.12502
lthumb 10.4301 24.0254
rfemur -12.6985 -6.86704 8.32849
rtibia 60.384
rfoot -3.24157 9.6529
rtoes -3.8277
lfemur -6.71373 10.8332 -23.1628
ltibia 29.8469
lfoot -8.97523 -8.00239
ltoes -5.45199
17
root 20.3454 19.1264 0.335135 91.9497 -93.5048 -99.0816
lowerback 7.23742 1.29699 -7.66624
upperback 14.3153 0.943785 -2.96804
thorax 11.3486 -0.571092 0.964514
lowerneck -1.67459 0.904375 2.13199
upperneck 24.9445 0.805211 -3.04688
head 7.97697 -0.0206026 -1.36697
rclavicle 1.47101e-014 4.45278e-014
rhumerus -27.7973 -19.2888 -84.1502
rradius 24.6934
rwrist -1.60356
rhand -9.90655 9.08259
rfingers 7.12502
rthumb 16.0736 -20.2707
lclavicle 1.47101e-014 4.45278e-014
lhumerus -13.2103 -7.97806 80.809
lradius 32.161
lwrist -22.0415
lhand -16.0394 -5.69443
lfingers 7.12502
lthumb 10.1621 24.0401
rfemur -13.6905 -7.09677 8.63657
rtibia 59.7737
rfoot -3.75735 9.87755
rtoes -4.3115
lfemur -6.613 10.7755 -23.0518
ltibia 29.9157
lfoot -9.26528 -8.02897
ltoes -5.44504
18
root 20.2664 19.128 0.346524 92.6439 -93.3878 -99.6579
lowerback 7.40959 1.24617 -7.55425
upperback 14.4281 0.843028 -2.8708
thorax 11.3864 -0.624112 1.00199
lowerneck -1.57774 0.906583 2.11835
upperneck 24.7467 0.827139 -3.09812
head 7.89319 -0.011121 -1.37736
rclavicle 1.19271e-015 -6.36111e-015
rhumerus -27.754 -19.5355 -83.9678
rradius 24.812
rwrist -1.48672
rhand -9.85801 9.07407
rfingers 7.12502
rthumb 16.1204 -20.2755
lclavicle 1.19271e-015 -6.36111e-015
lhumerus -12.6597 -8.18268 80.5534
lradius 32.9181
lwrist -21.1728
lhand -16.4538 -5.76527
lfingers 7.12502
lthumb 9.76239 23.9885
rfemur -14.6376 -7.27415 8.95251
rtibia 59.0756
rfoot -4.27342 10.1054
rtoes -4.97701
lfemur -6.49184 10.7195 -22.9416
ltibia 29.9642
lfoot -9.52406 -8.04292
ltoes -5.45903
19
root 20.1894 19.13 0.357089 93.2606 -93.2691 -100.158
lowerback 7.60592 1.21871 -7.41827
upperback 14.5488 0.770637 -2.77718
thorax 11.417 -0.66088 1.02299
lowerneck -1.54967 0.895792 2.14108
upperneck 24.5698 0.828735 -3.14762
head 7.82861 -0.00751199 -1.39503
rclavicle 6.75868e-015 2.62396e-014
rhumerus -27.7088 -19.6614 -83.8473
rradius 25.0103
rwrist -1.51529
rhand -9.82926 9.06651
rfingers 7.12502
rthumb 16.1481 -20.2808
lclavicle 6.75868e-015 2.62396e-014
lhumerus -12.1263 -8.48127 80.2898
lradius 33.7518
lwrist -20.2124
lhand -16.9303 -5.79902
lfingers 7.12502
lthumb 9.30256 23.9757
rfemur -15.5732 -7.43007 9.27913
rtibia 58.3048
rfoot -4.84761 10.4037
rtoes -5.92313
lfemur -6.35377 10.6783 -22.8238
ltibia 29.9834
lfoot -9.80082 -8.05314
ltoes -5.55932
20
root 20.1125 19.1337 0.36803 94.2168 -93.1883 -100.986
lowerback 7.80007 1.18861 -7.29285
upperback 14.6563 0.696584 -2.69411
thorax 11.4338 -0.697653 1.03909
lowerneck -1.49645 0.880841 2.14367
upperneck 24.3986 0.821201 -3.17712
head 7.76123 -0.00853967 -1.40331
rclavicle 5.96354e-015 -7.95139e-016
rhumerus -27.6623 -19.7072 -83.7404
rradius 25.2001
rwrist -1.63174
rhand -9.85459 9.09692
rfingers 7.12502
rthumb 16.1237 -20.2524
lclavicle 5.96354e-015 -7.95139e-016
lhumerus -11.6433 -8.7642 80.039
lradius 34.6003
lwrist -19.2714
lhand -17.5238 -5.80349
lfingers 7.12502
lthumb 8.72986 23.996
rfemur -16.4792 -7.59717 9.56086
rtibia 57.4633
rfoot -5.40912 10.7329
rtoes -7.09563
lfemur -6.21778 10.6243 -22.7497
ltibia 29.9766
lfoot -10.0214 -8.05669
ltoes -5.47103
21
root 20.0364 19.1374 0.378929 95.2438 -93.09 -101.903
lowerback 8.0231 1.17369 -7.12115
upperback 14.7878 0.638718 -2.6096
thorax 11.4605 -0.723518 1.03092
lowerneck -1.54324 0.853923 2.13162
upperneck 24.2539 0.792274 -3.16748
head 7.72001 -0.0173318 -1.39783
rclavicle 5.56597e-015 6.36111e-015
rhumerus -27.5804 -19.7019 -83.6787
rradius 25.4446
rwrist -1.85092
rhand -9.85704 9.11136
rfingers 7.12502
rthumb 16.1213 -20.2381
lclavicle 5.56597e-015 6.36111e-015
lhumerus -11.1826 -9.08804 79.7757
lradius 35.5698
lwrist -18.2699
lhand -18.1343 -5.79279
lfingers 7.12502
lthumb 8.14077 24.0304
rfemur -17.3232 -7.7235 9.86249
rtibia 56.5317
rfoot -5.96529 11.0843
rtoes -8.03803
lfemur -6.05344 10.5677 -22.6516
ltibia 29.9516
lfoot -10.2606 -8.05963
ltoes -5.53067
22
root 19.9609 19.1382 0.389275 96.0871 -93.0106 -102.655
lowerback 8.27113 1.16818 -6.97347
upperback 14.9196 0.589468 -2.51207
thorax 11.4728 -0.748661 1.05058
lowerneck -1.58487 0.821382 2.11219
upperneck 24.1194 0.761049 -3.1837
head 7.6813 -0.0303755 -1.39996
rclavicle -1.78906e-014 -3.4191e-014
rhumerus -27.4908 -19.5409 -83.6146
rradius 25.6774
rwrist -2.1223
rhand -9.88086 9.19576
rfingers 7.12502
rthumb 16.0984 -20.1556
lclavicle -1.78906e-014 -3.4191e-014
lhumerus -10.8081 -9.34628 79.5609
lradius 36.6318
lwrist -17.3375
lhand -18.8226 -5.74785
lfingers 7.12502
lthumb 7.4764 24.1
rfemur -18.0792 -7.83326 10.1469
rtibia 55.497
rfoot -6.54404 11.4282
rtoes -8.91537
lfemur -5.86868 10.5344 -22.5675
ltibia 29.9213
lfoot -10.4929 -8.08058
ltoes -5.63286
23
root 19.8854 19.1395 0.399476 96.9513 -92.9329 -103.453
lowerback 8.53606 1.16621 -6.81964
upperback 15.0718 0.541554 -2.40969
thorax 11.5003 -0.774833 1.07149
lowerneck -1.59644 0.785638 2.08122
upperneck 23.9303 0.730205 -3.20806
head 7.61898 -0.0436148 -1.40201
rclavicle -1.90833e-014 -2.22639e-014
rhumerus -27.3463 -19.2465 -83.5987
rradius 25.9205
rwrist -2.46902
rhand -9.94675 9.23496
rfingers 7.12502
rthumb 16.0349 -20.1215
lclavicle -1.90833e-014 -2.22639e-014
lhumerus -10.4557 -9.54538 79.3488
lradius 37.7584
lwrist -16.4771
lhand -19.3618 -5.5813
lfingers 7.12502
lthumb 6.95588 24.2844
rfemur -18.7273 -7.92452 10.416
rtibia 54.3444
rfoot -7.0411 11.8121
rtoes -9.23101
lfemur -5.64959 10.4527 -22.489
ltibia 29.8862
lfoot -10.7223 -8.06422
ltoes -5.50484
24
root 19.8104 19.1407 0.409657 97.7849 -92.8172 -104.243
lowerback 8.81728 1.17695 -6.61667
upperback 15.2435 0.507644 -2.28863
thorax 11.5402 -0.791634 1.08536
lowerneck -1.6745 0.739922 2.00759
upperneck 23.7648 0.680942 -3.18618
head 7.57583 -0.0653101 -1.38304
rclavicle 1.03368e-014 1.74931e-014
rhumerus -27.1485 -18.82 -83.6116
rradius 26.213
rwrist -2.96663
rhand -9.95864 9.17646
rfingers 7.12502
rthumb 16.0235 -20.1809
lclavicle 1.03368e-014 1.74931e-014
lhumerus -10.1181 -9.73036 79.1428
lradius 38.9213
lwrist -15.7484
lhand -19.9863 -5.44358
lfingers 7.12502
lthumb 6.35309 24.4411
rfemur -19.2675 -7.98505 10.7262
rtibia 53.0847
rfoot -7.40962 12.2139
rtoes -9.37381
lfemur -5.4042 10.3917 -22.3602
ltibia 29.8468
lfoot -10.9477 -8.04394
ltoes -5.5729
